<svg xmlns="http://www.w3.org/2000/svg" width="480pt" height="290pt" viewBox="0 0 480 290" version="1.1" xmlns:xlink="http://www.w3.org/1999/xlink">
  <g id="surface2" transform="matrix(1.3121763774443536,0,0,1.3121763774443536,-227.17103609642245,-12.212459783545043)">
    <path style="stroke:none;fill-rule:evenodd;fill:rgb(0.000000%,51.372549%,74.901961%);fill-opacity:1" d="M 310.949219 132.898438 L 236.000000 132.898438 L 228.949219 145.199219 L 303.898438 145.199219 L 310.949219 132.898438 M 278.199219 162.750000 L 218.800781 162.750000 L 225.851562 150.449219 L 285.250000 150.449219 L 278.199219 162.750000 "/>
    <path style="stroke:none;fill-rule:evenodd;fill:rgb(51.764706%,61.568627%,66.666667%);fill-opacity:1" d="M 213.101562 162.699219 L 240.550781 115.199219 L 233.449219 102.949219 L 199.000000 162.699219 L 213.101562 162.699219 M 178.500000 162.699219 L 223.300781 85.398438 L 230.398438 97.648438 L 192.898438 162.699219 L 178.500000 162.699219 "/>
    <path style="stroke:none;fill-rule:evenodd;fill:rgb(11.764706%,25.882353%,53.333333%);fill-opacity:1" d="M 219.949219 69.750000 L 253.550781 127.898438 L 267.699219 127.898438 L 234.101562 69.699219 L 219.949219 69.750000 M 258.000000 75.851562 L 288.000000 127.898438 L 273.851562 127.949219 L 243.851562 75.898438 L 258.000000 75.851562 "/>
  </g>
  <g id="surface4">
    <text style="fill:rgb(30,66,136)" font-family="Segoe UI" font-size="37" transform="matrix(0.9614738648027675,0,0,0.9614738648027675,147.726495253924,145.67947729605538)" xml:space="preserve"><![CDATA[Laboratorio Clínico ]]></text>
    <text style="fill:rgb(30,66,136)" font-family="Segoe UI" font-size="50" transform="matrix(1,0,0,1,210,197)" xml:space="preserve"><![CDATA[Roman]]></text>
  </g>
</svg>